<?xml version="1.0" encoding="UTF-8" standalone="no"?>
<svg
   width="256"
   height="256"
   version="1.1"
   id="svg19"
   sodipodi:docname="logo.svg"
   inkscape:version="1.1 (c68e22c387, 2021-05-23)"
   xmlns:inkscape="http://www.inkscape.org/namespaces/inkscape"
   xmlns:sodipodi="http://sodipodi.sourceforge.net/DTD/sodipodi-0.dtd"
   xmlns="http://www.w3.org/2000/svg"
   xmlns:svg="http://www.w3.org/2000/svg">
  <defs
     id="defs23" />
  <sodipodi:namedview
     id="namedview21"
     pagecolor="#505050"
     bordercolor="#eeeeee"
     borderopacity="1"
     inkscape:pageshadow="0"
     inkscape:pageopacity="0"
     inkscape:pagecheckerboard="0"
     showgrid="false"
     inkscape:zoom="3.2068397"
     inkscape:cx="85.910125"
     inkscape:cy="127.07215"
     inkscape:window-width="2560"
     inkscape:window-height="1369"
     inkscape:window-x="1912"
     inkscape:window-y="1233"
     inkscape:window-maximized="1"
     inkscape:current-layer="svg19" />
  <ellipse
     style="fill:#1DB954"
     id="path843"
     cx="128"
     cy="128"
     rx="120"
     ry="120" />
  <path
     d="M 60.966001,43.683249 204.06258,186.77961 195.03378,195.8084 51.937423,52.711772 Z M 169.49718,103.78525 v 19.15258 c 0.001,3.41859 -0.39154,6.82572 -1.16916,10.15488 l 10.20668,10.19468 c 2.47301,-6.49908 3.73705,-13.39569 3.73105,-20.34956 v -19.15258 z m -38.30517,95.76293 v -19.50759 c 7.97906,-0.88777 15.68165,-3.44803 22.60389,-7.51336 l -9.43615,-9.42906 c -6.81263,3.29916 -14.35108,4.81569 -21.90916,4.40833 -7.55808,-0.40735 -14.88985,-2.72603 -21.30789,-6.73846 -6.418315,-4.01244 -11.71366,-9.58775 -15.390617,-16.20407 -3.676956,-6.61577 -5.615227,-14.05661 -5.63344,-21.62614 V 103.78525 H 67.350288 v 19.15258 c 0,29.52668 22.38451,53.9143 51.073692,57.10276 v 19.50759 H 92.886997 v 12.76857 h 63.842153 v -12.76857 z m 25.53714,-78.05871 V 78.248536 c 0,-17.899669 -14.02171,-31.920941 -31.92116,-31.920941 -5.56113,-0.02181 -11.0301,1.41913 -15.86106,4.173521 -4.8315,2.754445 -8.85538,6.727835 -11.670794,11.523616 m -4.389139,49.593428 v 10.92105 c 0.0055,8.50474 3.368362,16.66376 9.356803,22.70368 4.08453,4.24583 9.28357,7.25488 15.00012,8.68088 5.71654,1.42655 11.71938,1.21279 17.31978,-0.61675 z"
     id="path17"
     style="fill:#191414;fill-opacity:1;stroke-width:5.45316" />
</svg>
